<svg clip-rule="evenodd" fill-rule="evenodd" height="26" image-rendering="optimizeQuality" shape-rendering="geometricPrecision" text-rendering="geometricPrecision" viewBox="0 0 900 262" width="90" xmlns="http://www.w3.org/2000/svg"><g fill="white"><g fill-rule="nonzero"><path d="m436 63c10 0 19 4 25 11s9 17 9 27c0 11-3 21-9 28s-15 12-25 12c-9 0-18-5-24-12s-9-17-9-28c0-10 3-20 9-27s15-11 24-11zm13 21c-3-4-7-7-13-7-4 0-9 3-12 7-4 5-6 11-6 17 0 8 2 14 6 18 3 4 8 7 12 7 6 0 10-3 13-7 4-4 6-10 6-18 0-6-2-12-6-17z"/><path d="m419 111c0 7-3 12-7 17-5 4-11 7-17 7h-20c-7 0-13-3-17-7-5-5-7-10-7-17v-94h15v94c0 2 1 5 3 7 1 1 3 2 6 2h20c2 0 4-1 6-2 2-2 3-5 3-7zm-167 0c0 2 0 5 2 7 2 1 4 2 7 2h42c3 0 5-1 7-2 1-2 3-5 3-7v-32h14v32c0 7-2 12-7 17-4 4-10 7-17 7h-42c-7 0-13-3-17-7-5-5-8-10-8-17z"/><path d="m67 121h152c5 0 10-3 13-6s5-8 5-13-2-10-5-13c-3-4-8-6-13-6h-127l-5-13 68-67 10 11-54 54h108c9 0 17 4 24 10 6 6 9 14 9 24 0 9-3 18-9 24-7 6-15 10-24 10h-152z"/><path d="m37 63h19c6 0 12 2 16 6s6 10 6 16v51h-41c-7 0-12-3-16-7s-7-10-7-16v-28c0-6 3-12 7-16s9-6 16-6zm19 14h-19c-2 0-4 1-6 3-1 1-2 3-2 5v28c0 2 1 4 2 5 2 2 4 3 6 3h27v-36c0-2-2-4-3-5-1-2-3-3-5-3z"/><path d="m78 128c0 19-4 33-13 42-9 10-22 14-38 14h-21v-15h21c11 0 21-3 27-10 6-6 10-16 10-31z"/></g><circle cx="304" cy="171" r="11"/><circle cx="272" cy="171" r="11"/><path d="m565 112c0 2 1 5 3 6 1 2 3 3 6 3h43c2 0 5-1 6-3 2-1 3-4 3-6v-32h15v32c0 6-3 12-7 17-5 4-11 7-17 7h-43c-6 0-13-3-17-7-4-5-7-11-7-17z" fill-rule="nonzero"/><path d="m610 121h182c5 0 10-3 13-6 4-3 6-8 6-13s-2-10-6-13c-3-4-8-6-13-6h-126l-6-13 69-67 10 11-55 54h108c10 0 18 4 24 10s10 14 10 24c0 9-4 18-10 24s-15 10-24 10h-182zm-45-9v24c-1 15-6 26-13 34-9 10-22 14-39 14h-20v-15h20c12 0 22-3 28-10 5-5 8-12 9-23v-24z" fill-rule="nonzero"/><circle cx="617" cy="55" r="11"/><circle cx="585" cy="55" r="11"/><path d="m867 83c3 0 8 1 10 3 1 1 2 3 2 6v20c0 2-1 5-2 6-2 2-5 3-7 3h-32v15h32c7 0 12-3 17-7 4-5 7-11 7-17v-20c0-6-3-13-7-17-5-4-13-7-20-7zm-861 175v-42h15c6 0 10 0 14 2 3 2 6 5 8 8s3 7 3 11c0 3-1 6-2 8-1 3-3 5-5 7s-4 4-7 5c-2 1-3 1-4 1zm14-37h-8v32h8c3 0 6 0 7-1 2 0 4-1 5-1l3-3c3-3 4-7 4-11 0-5-1-9-4-12-1-1-3-2-4-2-2-1-3-1-4-2zm97-6c6 0 12 2 16 6 5 4 7 10 7 16s-2 12-7 16c-4 4-10 6-16 6-7 0-12-2-17-6-4-4-6-10-6-16s2-12 6-16c5-4 10-6 17-6zm0 6c-5 0-9 1-12 4s-5 7-5 12 2 9 5 12 7 4 12 4 9-1 12-4c3-4 5-7 5-12s-2-8-5-12c-3-3-7-4-12-4zm110 28v6c-5 3-10 4-16 4-4 0-9-1-12-3s-6-4-8-8c-2-3-3-7-3-11 0-6 3-11 7-16 4-4 10-6 16-6 5 0 10 1 15 3v7c-5-3-9-4-14-4s-9 1-12 4c-4 4-5 7-5 12s1 9 4 12c4 3 8 4 13 4s10-1 15-4zm46-33h36v5h-15v37h-6v-37h-15zm101-1c7 0 12 2 17 6 4 4 6 10 6 16s-2 12-6 16c-5 4-10 6-17 6s-12-2-16-6c-5-4-7-10-7-16s2-12 7-16c4-4 9-6 16-6zm0 6c-5 0-9 1-12 4s-5 7-5 12 2 9 5 12 7 4 12 4 9-1 12-4c3-4 5-7 5-12s-2-8-5-12c-3-3-7-4-12-4zm73 37v-42h11c4 0 8 1 10 3 3 2 4 5 4 9 0 2 0 4-2 6-1 2-3 3-5 4 1 1 3 2 4 4 1 1 3 4 6 8 1 2 2 4 3 5l2 3h-7l-2-2v-1l-1-2-2-3-2-3-4-4-3-3h-5v18zm8-37h-1v13h8l3-3c1-1 1-2 1-4 0-1 0-2-1-3l-3-3zm169-5h6v42h-6v-33l-13 17h-2l-13-17v33h-6v-42h6l14 17zm83 0h8l-16 20v22h-6v-22l-16-20h7l12 14zm92 33v6c-5 3-10 4-16 4-5 0-9-1-12-3s-6-4-8-8c-2-3-3-7-3-11 0-6 2-11 7-16 4-4 10-6 16-6 5 0 10 1 15 3v7c-5-3-10-4-14-4-5 0-9 1-13 4-3 4-4 7-4 12s1 9 4 12c4 3 8 4 13 4s10-1 15-4zm71-34c6 0 12 2 16 6 5 4 7 10 7 16s-2 12-7 16c-4 4-10 6-17 6-6 0-11-2-16-6-4-4-6-10-6-16s2-12 6-16c5-4 10-6 17-6zm0 6c-5 0-9 1-12 4s-5 7-5 12 2 9 5 12 7 4 12 4 9-1 12-4c3-4 5-7 5-12s-2-8-5-12c-3-3-7-4-12-4z" fill-rule="nonzero"/></g></svg>